<svg version="1.1" id="Layer_1" xmlns="http://www.w3.org/2000/svg" xmlns:xlink="http://www.w3.org/1999/xlink" x="0px" y="0px"
	 width="100%" viewBox="0 0 500 500" enable-background="new 0 0 500 500" xml:space="preserve">
<path fill="transparent" opacity="1.000000" stroke="none" 
	d="
M1.386919,283.037354 
	C1.000000,190.374161 1.017901,97.748299 0.923619,5.122547 
	C0.920406,1.965878 1.197963,0.888649 4.874089,0.891460 
	C168.968338,1.016912 333.062683,1.017670 497.156952,0.888483 
	C500.896729,0.885538 501.075989,2.061047 501.071747,5.153615 
	C500.977997,73.789871 501.000000,142.426300 501.000000,211.531342 
	C498.265839,211.669449 498.613312,209.173340 498.024323,207.498978 
	C495.829834,201.260910 492.681885,195.606613 487.578247,191.366714 
	C476.308777,182.004395 463.850006,181.806458 450.246582,190.487061 
	C448.443817,191.637436 446.891693,193.277496 444.186310,193.353363 
	C441.585480,191.979889 441.052277,189.606750 440.184906,187.474243 
	C429.559082,161.349365 414.519745,138.059326 394.104889,118.612709 
	C360.709808,86.801491 321.231323,67.657524 274.979523,63.224915 
	C249.512253,60.784222 224.441025,62.596973 199.421814,69.730087 
	C194.701126,70.656342 190.452332,69.352211 186.148987,69.161743 
	C153.779770,67.729103 124.039650,76.097038 97.596306,94.459183 
	C77.416145,108.472214 64.254517,127.727325 61.063557,152.792587 
	C60.568802,156.678940 58.754383,159.405716 55.295078,161.540558 
	C46.551220,166.936722 39.251785,173.915283 33.794559,182.727066 
	C23.718964,198.996109 23.867567,215.756775 31.386477,232.834427 
	C34.143002,239.095306 37.367748,245.104065 42.074539,250.197006 
	C42.940453,251.133957 43.981255,252.304871 43.051750,253.732391 
	C42.259537,254.949051 40.894627,254.673889 39.880089,254.201080 
	C32.450203,250.738464 25.734804,253.705093 19.396019,256.954712 
	C12.469617,260.505554 8.194480,266.654144 5.515682,273.964081 
	C4.388831,277.039032 4.185121,280.521484 1.386919,283.037354 
z"/>
<path fill="transparent" opacity="1.000000" stroke="none" 
	d="
M500.631927,228.944611 
	C501.000000,318.293152 500.981354,407.586304 501.076752,496.879333 
	C501.080139,500.039856 500.796387,501.111115 497.124084,501.108307 
	C333.031372,500.983093 168.938538,500.982391 4.845832,501.111237 
	C1.111857,501.114166 0.923121,499.947632 0.927659,496.849243 
	C1.023300,431.545349 1.000000,366.241333 1.000000,300.468658 
	C15.216558,307.083221 29.148319,314.701111 41.210915,325.139008 
	C48.082008,331.084656 55.326385,335.539734 64.633957,335.865723 
	C66.146492,335.918701 67.569244,336.384949 69.105217,337.534363 
	C71.618538,342.377808 73.561028,347.089355 75.410645,352.237976 
	C74.738373,355.115753 72.473244,356.160126 70.789833,357.713623 
	C62.248775,365.595642 62.161884,373.209045 70.636307,381.151489 
	C75.954819,386.136200 82.405060,389.275970 89.086487,391.907471 
	C93.062111,393.473297 96.316147,395.857117 99.321907,398.837799 
	C106.291824,405.749725 112.892250,413.042603 120.709702,419.085052 
	C126.871407,423.847809 133.631226,427.053467 141.131439,429.202454 
	C161.586563,435.063416 182.463776,437.580078 203.650482,438.814087 
	C231.283585,440.423523 258.939636,440.114166 286.528381,439.337463 
	C312.984955,438.592560 339.164368,434.297943 364.864960,427.447784 
	C374.932251,424.764496 383.035797,419.751312 389.695129,411.794464 
	C398.772339,400.948730 408.678619,390.830048 418.246063,380.416382 
	C421.290985,377.102142 423.612640,373.661621 424.006500,368.700348 
	C429.612122,358.307709 435.236450,348.387299 439.587952,337.760223 
	C445.145081,324.188873 448.954193,310.172394 451.873047,295.470795 
	C452.606079,293.622772 453.854858,292.796967 455.184357,292.076782 
	C478.462097,279.467621 490.302094,258.416840 497.909454,234.232361 
	C498.494995,232.370804 498.448608,230.214767 500.631927,228.944611 
z"/>
<path fill="#4A2F06" opacity="1.000000" stroke="none" 
	d="
M68.864700,338.182526 
	C67.641075,337.653778 66.726578,336.965454 65.808014,336.960022 
	C54.969116,336.895630 46.756340,331.570221 38.899353,324.666016 
	C29.266253,316.201080 18.089861,309.899475 6.644490,304.144928 
	C4.729632,303.182129 2.629045,302.465973 1.293401,300.171173 
	C1.000000,294.645081 1.000000,289.290131 1.000000,283.467590 
	C3.066679,280.658630 2.902675,277.524261 3.847354,274.788757 
	C8.131430,262.383301 16.711250,254.980209 29.379873,251.959366 
	C34.014812,250.854172 38.142765,252.503174 42.461533,254.237823 
	C43.077477,251.774475 41.223465,251.252731 40.448162,250.239075 
	C27.601410,233.442566 20.670164,215.107330 27.157118,193.944061 
	C31.814224,178.750565 42.613670,168.202637 55.729191,159.885193 
	C57.950729,158.476379 59.473080,157.136505 59.783508,154.227112 
	C62.387421,129.822418 74.189301,110.320099 93.638252,96.065819 
	C123.206779,74.394783 156.618408,65.153114 193.315735,68.563309 
	C194.804840,68.701691 196.299591,68.779175 198.195221,68.925659 
	C210.647110,69.572403 220.606522,75.135208 229.618195,82.528183 
	C234.234283,86.315132 238.674957,90.486427 241.682678,95.772972 
	C243.848892,99.580399 246.850815,101.027138 251.153717,100.723671 
	C263.005920,99.887772 274.382568,101.734306 285.113647,107.088089 
	C298.902191,113.967270 305.961334,125.640755 309.162506,140.039902 
	C313.006012,133.992569 319.513184,131.303696 325.974945,128.936630 
	C338.093964,124.497208 350.778442,122.640114 363.621002,121.643036 
	C371.427582,121.036934 379.152893,120.560555 387.004303,121.577896 
	C392.831207,122.332932 397.542419,124.401680 401.112610,129.027176 
	C412.774933,144.136780 418.464294,161.469620 420.314453,180.273270 
	C421.066467,187.915848 420.664520,195.526306 420.293396,203.157730 
	C419.791931,213.469818 415.430176,220.874176 405.322357,224.546066 
	C396.810944,227.638000 391.759735,233.259964 391.025452,242.971359 
	C389.868500,258.272522 387.336700,273.383301 381.376556,287.728394 
	C378.846405,293.817963 375.613190,299.487793 370.985840,304.070984 
	C367.814697,307.211853 367.611969,309.822937 370.093201,313.136230 
	C370.589569,313.799072 370.878448,314.625153 371.403748,315.259064 
	C372.296539,316.336395 372.324066,318.535004 374.204895,318.286224 
	C375.579834,318.104370 375.876373,316.338043 376.425232,315.169556 
	C380.074768,307.399811 385.451538,300.786255 390.605072,294.041504 
	C398.070892,284.270508 403.029449,273.820343 402.929749,261.046600 
	C402.861237,252.267838 406.729004,244.157455 410.554230,236.388870 
	C418.110992,221.041824 427.563354,206.980347 440.318756,195.361084 
	C441.184082,194.572861 442.055603,193.799637 443.590637,193.408218 
	C446.749542,191.590317 449.435852,189.650375 452.301758,188.027542 
	C473.175446,176.207703 495.371429,187.171387 500.652435,211.845123 
	C501.000000,217.354935 501.000000,222.709854 501.000000,228.532394 
	C498.768768,231.466507 499.092773,234.801743 498.118103,237.693787 
	C489.957123,261.909302 477.076538,282.323608 453.146973,294.457458 
	C448.049133,299.061371 441.792328,300.678833 435.863556,302.398621 
	C415.232910,308.383148 407.540314,323.872467 404.578644,343.203888 
	C404.181030,345.799103 405.417114,347.252258 407.512085,348.369904 
	C411.925507,350.724487 416.070160,353.499115 419.800507,356.830566 
	C422.952484,359.645508 425.649231,362.786255 425.291412,367.777832 
	C425.334747,372.920380 423.326599,376.819580 420.178589,380.248169 
	C407.907166,393.613281 395.623657,406.967316 383.370941,420.349548 
	C381.138458,422.787872 378.227753,423.959229 375.243500,425.041779 
	C356.656525,431.784210 337.302826,435.104858 317.795258,437.504913 
	C273.317780,442.977112 228.758026,441.956055 184.216873,438.410156 
	C167.246109,437.059143 150.577820,433.667084 134.418594,428.295990 
	C123.549294,424.683197 115.619827,416.536163 107.345894,409.059631 
	C106.852196,408.613556 106.374077,408.144318 105.933403,407.646332 
	C99.059654,399.878571 91.611031,393.083496 81.418510,389.618896 
	C76.429398,387.923065 72.087952,384.518250 68.274666,380.699219 
	C61.136818,373.550537 61.026318,366.018372 68.108482,358.858643 
	C70.200508,356.743683 72.613602,354.946350 75.031586,352.711060 
	C79.545242,348.190460 79.491096,347.735718 74.869041,343.022186 
	C73.127533,341.246216 70.950066,340.045471 68.864700,338.182526 
z"/>
<path fill="#D74113" opacity="1.000000" stroke="none" 
	d="
M443.828796,193.034302 
	C427.925781,208.383026 415.644714,225.965393 407.683594,246.492126 
	C405.197021,252.903458 403.933411,259.501160 403.904968,266.446533 
	C403.871216,274.685822 400.552856,281.938507 395.948181,288.659180 
	C388.531860,299.483490 379.623566,309.334198 374.334290,322.704468 
	C371.288788,317.632812 368.661072,313.347107 366.140198,308.999481 
	C365.456055,307.819550 366.100220,306.854370 367.089783,305.982300 
	C379.751373,294.824219 383.731445,279.494141 386.858582,263.907776 
	C388.389832,256.275513 389.169830,248.468933 389.887512,240.704056 
	C390.530060,233.752563 393.610260,227.781372 399.890015,225.756149 
	C414.983582,220.888428 419.448303,210.802383 419.428680,195.754456 
	C419.401917,175.183395 415.937134,155.964035 405.729370,137.908478 
	C400.081696,127.918800 392.771057,121.938728 380.820068,122.163864 
	C360.761047,122.541748 340.947968,124.126831 322.147888,131.899002 
	C316.845917,134.090881 312.121887,137.138931 308.589844,142.537430 
	C307.004639,136.039993 305.195770,130.098389 302.062378,124.725365 
	C293.252075,109.617744 278.935760,103.837975 262.522461,102.121834 
	C256.921448,101.536209 250.892029,103.176506 245.632187,101.723068 
	C240.312149,100.253021 239.096283,93.459740 235.323410,89.512436 
	C225.299225,79.024796 213.224777,72.620148 198.914001,69.226028 
	C213.341812,63.834373 228.640884,61.791134 244.129578,61.069160 
	C291.735901,58.850090 335.012909,71.475304 373.526215,99.637466 
	C404.779907,122.491158 427.406738,152.145523 441.825562,188.070419 
	C442.442963,189.608643 443.060181,191.146896 443.828796,193.034302 
z"/>
<path fill="#D74113" opacity="1.000000" stroke="none" 
	d="
M425.428101,367.924774 
	C422.861298,358.453735 415.052490,353.983795 407.232300,349.931366 
	C403.257202,347.871429 402.394073,345.649445 403.577087,341.694977 
	C404.668091,338.048065 405.249695,334.252136 406.221924,330.565735 
	C409.838806,316.851898 418.234406,307.493591 431.657013,302.652802 
	C438.536591,300.171753 445.330627,297.453461 452.538879,294.772186 
	C449.003387,320.965973 439.549377,345.164276 425.428101,367.924774 
z"/>
<path fill="#D34417" opacity="1.000000" stroke="none" 
	d="
M68.647415,338.404938 
	C74.471657,338.916168 77.607277,343.514252 80.154243,347.955505 
	C82.131271,351.402893 77.477554,350.882690 75.541016,352.336548 
	C72.483139,348.134979 70.625832,343.452637 68.647415,338.404938 
z"/>
<path fill="#C1CCCD" opacity="1.000000" stroke="none" 
	d="
M244.927261,244.840240 
	C251.705673,248.711884 251.430557,254.693741 249.423187,261.166504 
	C252.884628,261.410004 255.969971,261.627014 259.332642,262.109619 
	C260.456909,264.076996 262.227020,263.550842 263.901093,264.057007 
	C265.039795,264.257446 265.796143,264.620453 266.879150,264.967316 
	C267.359833,265.132385 267.550079,265.203857 268.018066,265.399353 
	C268.661133,265.701782 269.024414,265.884216 269.661865,266.210358 
	C270.117065,266.457428 270.295837,266.565460 270.729126,266.860077 
	C272.106140,268.082520 273.395538,268.834961 275.169922,269.462463 
	C303.047180,287.914368 320.119476,313.357727 327.151276,345.600189 
	C328.924683,353.731720 330.362152,361.925415 330.287140,370.297424 
	C330.270905,372.107788 330.523834,373.980865 329.266052,375.973145 
	C317.021606,379.089478 304.714539,379.783020 292.453979,380.371674 
	C245.913055,382.606079 199.679077,379.077484 153.649780,372.286774 
	C152.006577,372.044342 150.390991,371.614746 148.383286,371.130371 
	C133.742920,358.742218 130.747482,343.245361 139.063324,325.083221 
	C145.115921,311.864105 154.239090,300.944519 164.722992,291.120728 
	C174.820587,281.658936 185.981644,273.623108 198.718475,267.234070 
	C207.614807,264.265198 216.530563,263.164185 225.893631,262.156860 
	C227.554245,260.892029 228.842209,259.964752 228.315521,257.595123 
	C227.054153,251.920044 229.148819,247.200043 233.742584,243.187195 
	C236.082642,241.874954 238.283951,241.659103 240.818146,242.505615 
	C242.570328,244.515930 242.976334,246.877625 244.476044,248.763336 
	C245.412048,247.498138 243.737656,246.189270 244.927261,244.840240 
z"/>
<path fill="#FEFDFD" opacity="1.000000" stroke="none" 
	d="
M39.687260,190.086716 
	C42.927834,180.257370 49.215649,173.451691 57.854794,168.817322 
	C71.480843,161.507751 82.651512,158.922058 105.568230,157.426880 
	C105.339310,156.978775 105.220787,156.349167 104.950691,156.275513 
	C95.246445,153.629501 85.390816,151.906555 75.363228,153.632965 
	C70.995842,154.384888 70.290977,153.565323 71.483795,149.359344 
	C78.720726,123.841331 93.220406,103.750305 116.596054,91.048920 
	C140.450180,78.087547 165.912064,71.998528 193.117447,77.876633 
	C209.051544,81.319412 222.397369,89.386780 233.039948,101.862022 
	C234.957916,104.110260 235.500610,105.254456 232.235275,106.792221 
	C227.415680,109.061943 223.058563,112.163139 219.969055,116.840103 
	C232.515747,111.697357 245.206589,107.521370 259.017761,108.342072 
	C265.544434,108.729912 271.836395,110.011696 277.804077,113.628342 
	C283.794861,122.876541 283.678253,134.406845 277.670410,143.135345 
	C275.729797,145.954803 273.434113,148.448227 269.546753,147.960114 
	C265.729401,147.480759 263.908569,144.674240 262.659760,141.451508 
	C260.319519,135.412094 259.462799,128.833252 255.865631,122.875717 
	C254.354126,124.107597 254.014801,125.916084 253.342361,127.441269 
	C245.087524,146.164307 231.155731,159.676529 213.884293,169.940628 
	C200.955444,177.624023 186.975983,182.332748 171.794495,182.868546 
	C166.945541,183.039642 162.153381,182.356522 157.438126,181.321136 
	C153.925537,180.549850 150.532837,180.541504 147.090363,181.600220 
	C136.666138,184.806137 126.660362,183.784500 117.189911,178.342651 
	C114.167343,176.605865 112.863617,177.126511 112.242096,180.746216 
	C109.434799,197.095474 99.745209,204.182526 83.715424,201.483704 
	C79.515884,200.776657 79.198456,202.826660 79.334053,205.866547 
	C79.699532,214.060089 75.968803,220.264572 69.899414,225.338699 
	C62.712044,231.347473 54.301476,230.683563 48.329395,223.500931 
	C42.551834,216.552261 40.302399,208.275604 39.693275,199.449448 
	C39.487133,196.462448 39.828239,193.463699 39.687260,190.086716 
z"/>
<path fill="#D8D2C9" opacity="1.000000" stroke="none" 
	d="
M39.486671,189.948151 
	C42.261223,195.183151 40.192169,201.202637 41.908833,206.865158 
	C43.711372,212.810974 45.572624,218.612045 49.799957,223.323349 
	C55.317211,229.472275 62.927628,229.802612 69.212708,224.396423 
	C75.411736,219.064224 78.871544,212.591125 77.989838,204.249908 
	C77.555779,200.143570 78.295364,198.656799 83.089287,199.894562 
	C98.573982,203.892593 109.844772,195.295593 111.046211,179.099991 
	C111.359055,174.882751 112.797523,174.022583 116.410294,176.299118 
	C125.835442,182.238235 135.878326,184.027527 146.398651,180.232712 
	C153.069839,177.826324 159.194443,180.681625 165.517395,181.198090 
	C177.746399,182.196930 189.305374,179.810852 200.394272,175.199326 
	C221.112900,166.583099 237.684540,152.889282 249.030579,133.340942 
	C251.561844,128.979828 253.323990,124.172302 255.675034,119.059708 
	C259.118347,125.403709 261.070190,131.679123 262.897583,138.029434 
	C264.032593,141.973694 264.905121,146.831116 270.172241,146.890808 
	C275.363678,146.949615 277.004120,142.254456 278.743286,138.326996 
	C282.271393,130.359879 281.206268,122.469772 278.020752,114.282959 
	C300.617920,124.588852 308.926056,152.069016 290.693451,170.223862 
	C281.431213,179.446609 269.353241,180.275101 257.148346,179.659302 
	C253.012695,179.450638 248.916489,178.532043 244.790909,178.031418 
	C241.102036,177.583786 239.775909,176.772949 242.676346,173.059067 
	C250.209900,163.412766 254.231491,152.218414 255.835495,140.130539 
	C255.944519,139.308914 255.979156,138.472168 255.973801,137.642929 
	C255.971252,137.248947 255.792953,136.856110 255.458252,135.521790 
	C252.331558,143.375977 249.355911,150.348358 244.959351,156.569138 
	C228.030701,180.521698 204.749985,192.700027 175.582031,193.753143 
	C168.847565,193.996292 162.370636,192.408722 155.855911,189.538666 
	C155.194122,189.597534 154.888245,189.693161 154.696762,189.965973 
	C157.761673,195.297363 162.639832,198.136658 168.873077,201.463211 
	C157.973801,202.381836 148.679306,201.061401 139.549225,198.156891 
	C130.345688,195.229034 122.602959,189.983017 115.842499,183.077194 
	C120.462502,193.989304 126.574623,203.496323 138.422272,207.543060 
	C141.127747,208.467148 140.886398,209.571854 139.717102,211.433716 
	C135.766541,217.724258 129.621002,219.967072 122.681740,220.205948 
	C110.376305,220.629562 98.926842,217.551254 88.443344,211.004242 
	C86.964569,210.080734 85.767029,208.315689 83.292526,209.214508 
	C88.264847,216.488632 94.325859,222.461151 102.483643,225.631607 
	C106.698425,227.269653 106.235123,229.036911 104.578041,232.200104 
	C96.516266,247.589294 84.007233,255.328934 69.486176,253.697403 
	C53.434860,251.893951 41.218853,240.778290 37.078251,223.985306 
	C34.253853,212.530426 34.807461,201.225754 39.486671,189.948151 
z"/>
<path fill="#A6AAA2" opacity="1.000000" stroke="none" 
	d="
M93.722244,352.373718 
	C96.501984,350.842346 98.921928,349.466644 102.180779,349.058899 
	C101.312149,353.816864 100.725731,358.232513 99.653191,362.526703 
	C98.780052,366.022552 99.756042,367.513519 103.276039,368.507690 
	C132.362427,376.722778 161.995926,381.922241 192.048630,384.757599 
	C221.885483,387.572571 251.778061,389.705200 281.773224,388.633820 
	C313.992462,387.483002 345.771118,383.275848 376.635101,373.509064 
	C386.771729,370.301392 387.500275,368.994141 385.489380,358.496002 
	C385.458099,358.332733 385.376190,358.172729 385.375488,358.010925 
	C385.362488,355.049377 382.542511,350.912079 384.520691,349.618500 
	C386.947571,348.031464 390.629211,350.624420 393.495697,352.559937 
	C394.114655,353.227905 394.759186,353.523224 395.782715,353.789917 
	C396.090637,353.966949 396.012268,353.928162 396.035889,353.891388 
	C407.915955,364.999420 407.106354,373.370148 393.321045,382.318573 
	C389.268585,384.949127 384.930206,387.000763 380.097443,388.860168 
	C377.204193,389.352234 374.836945,390.253906 372.295197,391.642151 
	C355.146942,396.376495 337.903351,398.874084 320.586609,400.826294 
	C296.814087,403.506287 272.928436,404.383148 248.569122,404.639801 
	C242.851181,403.349030 237.510986,404.229126 232.209045,404.004364 
	C194.394135,402.401398 156.814026,399.077606 120.315536,388.232574 
	C111.692513,385.670349 103.268379,382.475952 95.814850,377.219452 
	C95.270561,376.835632 94.712219,376.471283 94.177589,376.074005 
	C84.544083,368.915649 84.263977,360.375519 93.722244,352.373718 
z"/>
<path fill="#F9C60C" opacity="1.000000" stroke="none" 
	d="
M359.724579,130.074921 
	C369.194550,128.083267 378.492889,128.481216 387.760193,129.311356 
	C391.403961,129.637741 393.973785,132.048477 396.127594,135.056946 
	C410.633026,155.318527 414.190735,178.103882 412.621155,202.385880 
	C412.096893,210.496185 408.529327,214.603424 401.238983,217.166306 
	C388.928284,221.494003 383.716858,230.972412 382.968170,243.652786 
	C382.101440,258.331848 379.307343,272.657440 373.284576,286.192505 
	C372.276001,288.459045 370.908386,290.565857 369.415527,292.925110 
	C367.095062,290.792816 368.685211,288.686005 369.678162,286.724884 
	C375.784790,274.664093 377.509735,261.544159 379.187622,248.394592 
	C379.547150,245.577011 378.395142,244.370255 375.662628,244.367844 
	C374.506104,244.366821 373.346436,244.289917 371.840454,243.870056 
	C371.243927,243.596588 371.021637,243.456268 370.547241,243.016602 
	C368.600128,239.324570 368.465424,235.385956 366.387878,231.737228 
	C363.417023,225.164780 357.997253,222.040405 352.062469,219.562805 
	C349.299347,218.409286 346.434296,217.433914 344.237915,215.299652 
	C342.975800,214.073227 341.301117,212.943710 342.307068,210.462631 
	C346.596588,208.995758 347.642456,206.174164 347.669006,202.211197 
	C347.736267,192.173691 346.061249,182.399445 343.942505,172.660965 
	C343.485199,170.559204 342.778046,168.496262 343.020935,165.886505 
	C344.749695,162.082016 344.860382,157.808594 349.059631,155.625275 
	C351.503693,156.754929 351.637939,158.887039 352.142548,160.763916 
	C355.648163,173.802567 357.626099,187.087524 358.428894,200.555511 
	C358.458527,201.052719 358.429047,201.557327 358.505859,202.047791 
	C358.785309,203.832169 358.776031,206.092087 361.329437,205.923904 
	C363.560669,205.776993 363.436981,203.641724 363.514343,202.042633 
	C363.916901,193.721024 363.264801,185.464203 362.123749,177.212814 
	C360.612396,166.283920 357.104156,155.890640 353.965424,144.970337 
	C354.410858,139.306564 356.807007,134.800262 359.724579,130.074921 
z"/>
<path fill="#FACA0D" opacity="1.000000" stroke="none" 
	d="
M491.121155,205.751617 
	C497.251740,219.498276 493.688263,232.352432 488.422363,244.980499 
	C478.570221,268.606659 462.468628,285.616364 437.350250,293.236938 
	C429.895050,295.498749 422.619354,298.468689 415.845642,303.140259 
	C415.076447,303.189850 414.690918,303.333282 414.294556,303.957886 
	C414.226746,304.275330 414.103760,304.035980 414.184082,304.143921 
	C413.878540,304.244354 413.559692,304.381866 413.248138,304.956146 
	C413.177368,305.223846 413.198944,305.096344 413.197723,305.164429 
	C409.473511,306.101227 408.118683,303.274841 406.342407,300.537476 
	C406.192261,299.894592 406.163086,299.631592 406.162415,298.974182 
	C412.319000,288.527679 414.496826,277.029114 418.107758,266.054840 
	C418.569214,264.652405 418.793549,263.131683 420.286316,261.907471 
	C422.465179,262.748871 422.211670,264.565369 422.182312,266.129608 
	C422.111542,269.902100 423.104553,273.281097 425.687531,276.748779 
	C424.843658,275.020874 424.071533,273.791504 424.721741,272.000702 
	C429.824646,270.478241 432.092621,267.346313 433.043365,262.330444 
	C434.699188,253.594879 439.729614,246.904373 448.432526,244.432785 
	C456.622070,242.107025 461.103271,237.358139 462.561279,229.108978 
	C463.165375,225.691055 465.159821,222.682053 466.998749,219.713684 
	C469.277466,216.035461 471.261566,212.225250 472.286255,207.552063 
	C472.649780,206.966873 472.837463,206.754654 473.403717,206.329224 
	C479.416779,205.652985 484.987213,203.271118 491.121155,205.751617 
z"/>
<path fill="#C6BEB1" opacity="1.000000" stroke="none" 
	d="
M118.963516,239.285095 
	C120.653297,233.640564 123.693481,230.193710 129.966690,229.872849 
	C133.279602,229.703384 136.505035,227.823181 140.127945,226.684052 
	C143.101929,226.386078 143.650024,228.579071 144.485367,230.213074 
	C146.332626,233.826492 147.720917,237.644501 149.167389,241.832031 
	C150.332962,245.687607 151.633301,249.109558 152.655334,252.617035 
	C153.526291,255.606018 155.321121,256.727173 158.276672,255.668854 
	C162.498810,254.157028 166.633270,252.413742 170.804214,250.768005 
	C173.459671,249.720245 173.944916,247.529831 173.343491,245.004272 
	C172.610504,241.926300 171.574936,238.947021 169.959229,235.795258 
	C167.606155,230.720917 165.825516,225.784012 163.084717,221.297516 
	C162.198227,219.846405 161.760208,218.304245 162.789673,216.328705 
	C172.362213,213.783264 181.769730,211.729156 190.742111,208.126312 
	C196.144135,205.957138 201.251343,203.251938 206.326309,200.393097 
	C212.721359,196.790634 218.880417,193.628052 227.220444,195.456100 
	C239.747452,198.201950 252.659744,196.431702 265.785278,195.569061 
	C266.125580,198.649200 263.633179,198.865524 261.758270,199.589539 
	C251.477615,203.559494 240.654022,205.418961 229.789917,206.049500 
	C223.461334,206.416794 219.062378,208.486038 215.531799,213.885925 
	C212.386856,217.716431 208.355011,219.780121 204.377594,222.515991 
	C190.588593,227.924301 183.319138,238.504684 178.902740,251.626709 
	C178.017944,254.255615 177.813644,257.190094 175.507248,259.572601 
	C169.494522,260.771118 164.445984,263.700195 158.919586,265.231140 
	C162.128922,264.085846 165.434235,263.206604 168.578430,261.863953 
	C170.427322,261.074402 172.339203,260.508301 174.421143,262.181946 
	C175.210770,264.270691 174.457474,265.639618 173.188202,267.282837 
	C161.708954,273.296814 150.732803,279.505920 140.714447,287.917053 
	C138.622925,287.073486 138.806290,285.242950 138.337555,283.256592 
	C137.403992,279.868103 136.512085,276.889343 135.306244,273.611877 
	C133.814499,267.991852 131.578262,263.054779 129.338043,257.734711 
	C126.454414,251.120041 123.283356,245.082169 118.963516,239.285095 
z"/>
<path fill="#D64012" opacity="1.000000" stroke="none" 
	d="
M322.648376,202.488708 
	C323.170776,207.055801 323.618164,211.186279 323.970459,215.324844 
	C324.524719,221.835602 328.372253,226.484573 334.824890,227.973175 
	C338.378296,228.792923 342.055511,229.080856 345.603058,229.920578 
	C353.607971,231.815353 355.914307,235.049255 356.116974,243.193039 
	C356.450958,256.611816 354.431183,269.325195 346.726471,280.773224 
	C344.556763,283.997101 343.186859,283.790497 340.187134,281.768768 
	C333.954193,277.567902 330.040527,272.797821 328.176788,264.873199 
	C321.614716,236.970901 307.428070,212.805405 288.701385,191.287262 
	C286.124359,188.326111 285.748016,186.982864 289.409729,184.665161 
	C298.824066,178.706268 301.283112,174.987152 309.425598,157.209824 
	C316.397491,171.651276 320.398102,186.572998 322.648376,202.488708 
z"/>
<path fill="#FDFDFC" opacity="1.000000" stroke="none" 
	d="
M214.083618,214.310989 
	C218.387924,203.887878 227.833176,205.061676 236.337585,203.931854 
	C246.488388,202.583313 256.628815,201.077011 266.049500,196.044846 
	C278.044373,192.592331 274.329834,190.884659 282.399719,200.659836 
	C296.665466,217.940170 306.834991,237.287079 311.407806,259.375641 
	C311.796967,261.255554 312.128479,263.147430 312.571075,265.477631 
	C305.235474,263.297058 298.453339,261.280975 291.343170,259.067200 
	C288.133911,252.878754 287.784485,246.098358 285.129669,240.028336 
	C284.337341,238.216705 283.854584,236.270538 283.090942,234.037613 
	C281.800140,228.956772 279.441956,224.742432 277.310181,220.424011 
	C275.862976,217.492310 273.612701,216.861771 270.681091,217.758087 
	C270.044159,217.952850 270.830231,217.680862 270.210571,217.921021 
	C255.428162,223.649567 257.427551,221.786163 262.181702,234.137604 
	C262.837891,235.842361 263.352661,237.599289 264.118011,239.663849 
	C265.578033,244.741119 267.683502,249.292679 267.237091,254.677307 
	C265.028778,254.948257 263.049377,254.768738 261.090790,254.899963 
	C258.585602,255.067780 257.789490,253.905594 257.249634,251.573547 
	C254.299118,238.827881 245.265152,233.219910 231.591217,235.715256 
	C229.072784,233.830978 229.433502,230.932495 228.077393,228.339584 
	C227.344284,226.435410 226.409622,225.011200 225.904160,223.438660 
	C224.255844,218.310699 221.921082,214.227005 215.436279,215.450165 
	C215.020401,215.528595 214.572983,215.009277 214.083618,214.310989 
z"/>
<path fill="#7F7761" opacity="1.000000" stroke="none" 
	d="
M148.286926,423.057068 
	C132.896072,420.803284 121.400955,412.548676 110.954391,401.624634 
	C205.924332,420.702026 299.970856,421.506470 394.211182,396.418121 
	C384.374786,409.265167 373.298584,419.506256 356.431702,422.075897 
	C353.266174,420.793915 350.269928,420.347992 347.280121,420.609802 
	C331.692261,421.974854 316.048492,422.753967 300.436554,423.120422 
	C280.637177,423.585144 260.825989,425.478790 241.035873,424.312531 
	C224.242767,423.322968 207.422623,423.830078 190.645508,422.604462 
	C181.190063,421.913696 171.701645,421.654480 162.250504,420.839447 
	C157.569855,420.435822 152.906555,420.052155 148.286926,423.057068 
z"/>
<path fill="#A7AAA3" opacity="1.000000" stroke="none" 
	d="
M198.597900,266.915222 
	C197.508331,270.596832 193.761612,271.223511 190.911575,272.984985 
	C170.089127,285.854401 152.299118,301.717590 141.069397,323.908936 
	C133.272552,339.316528 133.172150,356.265228 146.997437,368.591461 
	C147.458923,369.002930 147.647675,369.720276 147.983795,370.641663 
	C134.731232,369.690857 121.903885,366.142090 108.939301,363.281342 
	C105.572258,362.538361 106.624931,360.170563 107.016533,358.176300 
	C110.436348,340.760529 117.647491,325.014404 128.374603,310.925934 
	C146.153229,287.576385 169.995743,273.731537 198.597900,266.915222 
z"/>
<path fill="#8D8878" opacity="1.000000" stroke="none" 
	d="
M148.182678,423.452148 
	C148.383102,419.862915 150.939072,419.038086 153.711914,419.059235 
	C163.140259,419.131195 172.540695,419.809998 181.917206,420.803558 
	C182.577576,420.873566 183.245193,421.005310 183.901215,420.967102 
	C195.367569,420.298920 206.747360,422.117218 218.206253,422.087830 
	C231.469452,422.053802 244.761108,423.329712 257.991089,422.801758 
	C271.927582,422.245605 285.864563,422.429596 299.783020,421.878326 
	C316.304840,421.223938 332.802032,419.960571 349.314148,419.036255 
	C351.743225,418.900269 354.407654,418.579468 355.975891,421.726013 
	C339.623474,426.592224 322.780121,428.422943 305.916565,430.257538 
	C287.862457,432.221649 269.712189,432.617249 251.626343,432.688324 
	C232.537933,432.763367 213.394424,432.474274 194.320526,430.541718 
	C178.919968,428.981445 163.592148,427.192169 148.182678,423.452148 
z"/>
<path fill="#F9C90B" opacity="1.000000" stroke="none" 
	d="
M8.972239,285.704376 
	C23.595974,290.454224 35.985729,298.502502 48.047512,307.159546 
	C49.959248,308.531647 52.275673,311.671661 54.372597,309.325317 
	C56.869335,306.531616 52.755150,305.188293 51.236351,303.817505 
	C40.241207,293.893921 27.603453,286.599701 13.818447,281.239258 
	C7.807250,278.901733 7.824139,278.858307 10.997782,272.370056 
	C13.857712,270.191437 16.401125,271.789856 18.807934,272.539429 
	C36.076748,277.917725 51.066914,287.335419 64.952446,298.733337 
	C71.532440,304.134491 77.464516,310.189728 83.444153,316.207947 
	C84.956207,317.729706 86.661026,319.171997 86.760536,321.957458 
	C85.318687,325.882080 82.277306,328.011719 79.636116,330.463318 
	C78.224648,331.773468 76.493172,332.206848 74.580109,331.463440 
	C70.249046,329.780334 65.731735,328.993958 61.118992,328.552856 
	C54.873413,327.955597 50.329533,323.990509 45.241806,320.269714 
	C44.885029,320.104370 45.011150,320.042206 44.955231,320.085114 
	C40.234966,314.525360 33.635052,311.447876 27.672287,306.989929 
	C26.819441,306.435333 26.497065,305.840088 25.841343,305.106018 
	C25.451736,304.730957 25.297401,304.579773 24.906357,304.207947 
	C22.834175,302.429291 20.808483,301.162689 18.365078,299.913391 
	C13.586784,296.777222 8.233025,294.553558 7.860085,287.633179 
	C7.715872,287.057587 7.656672,286.827423 7.694159,286.254150 
	C7.790846,285.911041 7.806375,285.845520 7.825931,285.818115 
	C8.095222,285.746002 8.344957,285.701324 8.972239,285.704376 
z"/>
<path fill="#FAD951" opacity="1.000000" stroke="none" 
	d="
M349.233337,155.686813 
	C346.395142,158.354477 346.472290,162.160812 344.028137,165.001373 
	C340.325195,163.364075 340.805603,159.504852 339.259216,156.709579 
	C337.898376,154.249832 337.510315,149.748398 333.706757,151.050613 
	C329.610321,152.453110 332.374634,156.222931 333.246307,158.669495 
	C339.146759,175.230743 341.061768,192.484970 342.400024,210.185059 
	C343.767273,214.959518 347.656097,216.454803 351.490845,218.009781 
	C357.845428,220.586456 363.920532,223.511063 367.002991,230.620148 
	C365.439514,232.562119 363.651398,232.328278 361.391510,231.242188 
	C355.630463,224.821396 348.467743,222.543793 340.688141,221.496078 
	C332.105255,220.340149 330.835846,219.012161 330.208862,210.061035 
	C329.036957,193.329895 325.191559,177.232071 319.043243,161.660614 
	C318.005798,159.033142 316.782288,156.479172 315.743042,153.852341 
	C312.961029,146.820114 314.986877,141.689270 321.884552,138.984955 
	C333.869415,134.286163 346.202881,130.880310 359.511017,129.704025 
	C359.388397,134.736572 356.151672,138.756454 354.838684,143.893433 
	C353.978241,144.996948 352.986969,145.176590 351.995209,145.252213 
	C348.771179,145.498123 348.203552,147.330963 348.947479,150.093613 
	C349.414551,151.828186 350.269836,153.551132 349.233337,155.686813 
z"/>
<path fill="#FDFDFD" opacity="1.000000" stroke="none" 
	d="
M329.494385,376.407043 
	C328.650604,331.865082 311.943207,295.807404 274.279785,270.211548 
	C273.874939,269.816650 273.755585,269.595703 273.813110,269.040924 
	C274.619141,268.238922 275.342072,268.054901 276.484497,268.017578 
	C277.103241,268.069061 277.347565,268.110260 277.945160,268.257690 
	C283.632111,271.045441 288.700500,274.207794 294.297363,277.178833 
	C317.649872,292.182037 332.408936,313.380219 341.732910,338.709961 
	C345.013794,347.622894 347.412628,356.793274 348.858490,366.195953 
	C349.186829,368.331238 349.629242,370.476746 348.286560,372.849365 
	C342.129974,374.854736 336.031952,375.710571 329.494385,376.407043 
z"/>
<path fill="#FADA52" opacity="1.000000" stroke="none" 
	d="
M421.243835,261.811523 
	C419.086853,267.788849 416.939728,273.511749 415.471100,279.403748 
	C413.765839,286.245148 411.135651,292.584717 407.089783,298.745300 
	C403.177551,299.939331 401.916931,297.321533 400.809509,294.238159 
	C407.540558,283.741913 411.473480,272.848145 411.099030,260.538971 
	C411.020813,257.967773 411.911346,255.276764 412.766327,252.781754 
	C419.926880,231.886124 431.655243,213.964920 448.124115,199.214493 
	C451.483093,196.206024 455.287109,193.799789 459.480713,192.032913 
	C472.399536,186.589920 483.597839,191.227097 491.407837,205.602295 
	C485.664734,206.308258 479.800507,206.663666 473.484619,207.017349 
	C471.328796,205.344498 471.271027,202.303192 468.140991,201.507721 
	C460.458069,202.510269 455.172424,207.083389 450.216980,212.023056 
	C443.136230,219.081223 437.255157,227.085495 432.266815,236.156906 
	C432.001556,236.667374 431.889099,236.867111 431.591919,237.353989 
	C429.643127,239.951019 428.375519,242.527222 427.236755,245.532745 
	C427.060974,246.037216 426.986572,246.235886 426.789062,246.723785 
	C426.411743,247.575989 426.166351,248.142349 425.928589,249.041702 
	C425.798737,249.545364 425.742462,249.747238 425.589600,250.250885 
	C425.289185,251.167374 425.078674,251.780029 424.828247,252.736572 
	C423.559998,255.876801 423.568359,259.131042 421.243835,261.811523 
z"/>
<path fill="#C0CACC" opacity="1.000000" stroke="none" 
	d="
M280.768890,265.322144 
	C282.491913,264.312042 283.950134,264.900513 285.397675,265.174805 
	C334.023163,274.387909 368.671326,308.913757 377.996338,357.429443 
	C379.550110,365.513367 379.550110,365.513367 371.315247,367.788452 
	C369.330292,366.327332 369.144501,364.302338 368.681885,362.362457 
	C359.765503,324.972656 338.449249,297.059387 304.640656,278.740479 
	C298.199829,275.250549 291.552032,272.198395 284.551208,269.963654 
	C283.138611,269.512756 281.667908,269.086487 280.530945,267.477081 
	C280.292969,266.613251 280.346008,266.113708 280.768890,265.322144 
z"/>
<path fill="#D5AB09" opacity="1.000000" stroke="none" 
	d="
M86.435272,322.074097 
	C81.925804,314.806580 75.477936,309.664703 69.507828,304.274353 
	C57.908676,293.801636 45.157604,284.851929 30.805986,278.339996 
	C24.722124,275.579498 18.468399,273.494354 11.588372,272.059540 
	C12.888174,267.600586 15.621689,266.875702 20.040373,268.714874 
	C33.742638,274.418121 46.501190,281.673859 58.385067,290.545105 
	C60.252068,291.938812 62.198250,294.858795 65.080536,291.333191 
	C62.514946,285.285187 57.032600,282.534424 52.410366,279.025787 
	C45.246960,273.588226 37.185238,269.596741 28.943336,265.997925 
	C26.881742,265.097748 24.352594,264.756104 23.583309,261.849701 
	C28.782084,258.284271 33.898743,257.358093 39.673100,259.939728 
	C54.245502,266.454865 67.070732,275.503937 78.661469,286.344696 
	C83.981476,291.320465 84.690941,298.333191 85.882408,305.015717 
	C86.642967,309.281464 87.455162,313.496674 89.961731,317.560211 
	C90.673912,319.202179 89.764275,320.004150 88.838898,321.122406 
	C88.056633,321.803894 87.454422,322.106506 86.435272,322.074097 
z"/>
<path fill="#FCFDFD" opacity="1.000000" stroke="none" 
	d="
M280.655823,266.747925 
	C291.428497,271.252960 301.956970,275.231354 311.629303,281.184509 
	C342.839996,300.394196 362.340302,327.835419 370.132568,363.625031 
	C370.378082,364.752899 370.642792,365.876617 370.915070,367.391937 
	C366.060455,369.715942 360.929474,370.675293 355.466553,371.757507 
	C352.654938,368.010681 353.513824,363.658691 352.940552,359.644257 
	C349.626312,336.436798 340.102234,316.478821 323.556274,299.720459 
	C314.919739,290.973022 305.280609,283.755859 294.345459,277.527863 
	C289.090332,274.166931 284.148651,271.010193 278.114319,269.179138 
	C277.799316,268.988770 277.447906,269.005219 277.272156,269.012848 
	C276.655457,268.598450 276.506836,268.090240 276.877319,267.139954 
	C278.117859,266.042023 279.188416,265.984894 280.655823,266.747925 
z"/>
<path fill="#8C8777" opacity="1.000000" stroke="none" 
	d="
M93.671875,352.065765 
	C94.018608,353.582520 92.943253,354.435822 92.046036,355.415283 
	C86.293259,361.695221 86.512283,367.861694 93.061417,373.467224 
	C101.061279,380.314545 110.818298,383.814423 120.656807,386.920654 
	C137.135620,392.123444 154.148773,395.069336 171.164536,397.710022 
	C182.436615,399.459320 193.899414,399.989502 205.280670,401.023041 
	C218.839020,402.254272 232.411346,403.231873 246.041367,403.108307 
	C246.622421,403.103058 247.208099,403.607330 247.954636,404.216553 
	C235.485535,405.467712 222.877335,404.764252 210.253448,404.186615 
	C174.458755,402.548615 138.900589,399.306030 104.378365,388.956879 
	C96.245598,386.518829 88.256653,383.589294 81.385864,378.316071 
	C73.023933,371.898407 72.949730,365.229767 81.135834,358.796783 
	C84.841751,355.884552 88.940704,353.737793 93.671875,352.065765 
z"/>
<path fill="#FDFDFC" opacity="1.000000" stroke="none" 
	d="
M174.819275,259.250092 
	C176.742020,254.379349 178.258499,249.670059 180.129608,245.106140 
	C184.599991,234.202148 191.956650,226.063522 203.559387,221.748016 
	C206.484741,225.314575 206.930374,229.935837 209.679535,233.915985 
	C210.916122,239.565369 212.999176,244.572311 214.112106,249.843369 
	C214.510727,251.731339 215.349442,253.603256 214.313568,255.944153 
	C200.419601,259.083557 186.747452,261.980194 173.453583,267.660278 
	C173.380234,266.058960 173.710403,264.449249 174.065216,262.430054 
	C173.925934,261.110992 173.967804,260.240540 174.819275,259.250092 
z"/>
<path fill="#C4BCAE" opacity="1.000000" stroke="none" 
	d="
M138.660370,281.903351 
	C140.624878,283.415161 139.724686,285.428284 140.295868,287.588196 
	C135.686279,293.352264 129.805450,297.408630 125.769135,303.472321 
	C121.844810,309.367798 117.661461,315.124573 113.357101,322.042908 
	C111.657509,300.487549 105.867081,281.011505 98.154724,262.070038 
	C96.409378,257.783478 100.070786,257.626160 102.284691,255.878448 
	C105.753830,255.333969 106.186676,258.055420 107.306931,259.879089 
	C108.418823,261.689087 109.071526,263.736176 110.028885,266.050659 
	C111.754066,271.136780 113.833771,275.693024 115.282333,280.856750 
	C118.596466,292.865173 118.566322,292.803589 129.545151,287.429901 
	C132.711349,285.880157 135.529007,283.888306 138.660370,281.903351 
z"/>
<path fill="#C3CDCF" opacity="1.000000" stroke="none" 
	d="
M293.858948,276.957581 
	C301.611450,279.202728 307.787872,284.108459 313.802551,289.003387 
	C336.237244,307.261536 350.449158,330.335114 354.104614,359.442627 
	C354.581848,363.242371 355.055573,367.012024 355.086426,371.274414 
	C353.017029,372.231445 350.944275,372.750793 348.473358,373.219116 
	C345.940979,347.694885 336.969391,324.831299 321.814056,304.323608 
	C314.235474,294.068451 304.944458,285.639740 294.179901,278.292938 
	C293.858978,277.792725 293.753571,277.546326 293.858948,276.957581 
z"/>
<path fill="#FCCE0C" opacity="1.000000" stroke="none" 
	d="
M370.744354,243.284393 
	C380.620789,242.999176 380.799957,243.016190 379.961792,251.839386 
	C378.765594,264.432007 376.497833,276.789246 370.442810,288.133728 
	C369.745087,289.441040 368.901917,290.732910 369.085571,292.719299 
	C369.124390,293.103699 369.100433,293.078278 369.102966,293.079132 
	C368.165710,293.641022 367.798004,294.603455 367.203094,295.780029 
	C366.348267,296.930206 365.718597,297.871124 364.992188,298.730255 
	C362.688538,301.454742 360.449127,302.335663 358.153076,298.622772 
	C357.305511,297.252167 356.071533,296.120483 354.883789,294.567749 
	C354.144592,292.706848 354.588654,291.320831 355.436554,290.012756 
	C364.230194,276.446564 368.568756,261.443207 369.833801,245.444916 
	C369.886688,244.776321 370.139282,244.156586 370.744354,243.284393 
z"/>
<path fill="#D13F11" opacity="1.000000" stroke="none" 
	d="
M82.748619,281.299957 
	C76.143753,274.199829 68.746490,268.620087 60.936474,263.338989 
	C68.891571,264.332794 76.728951,264.767456 84.563919,263.151245 
	C86.963493,262.656281 87.097504,264.921906 87.682884,266.313416 
	C93.187592,279.398712 96.687386,293.055450 98.977104,307.031311 
	C99.531319,310.414062 100.663185,313.792786 99.709915,317.676178 
	C93.990219,314.334625 92.884827,308.623840 92.249756,303.197937 
	C91.284431,294.950409 88.354126,287.800598 82.748619,281.299957 
z"/>
<path fill="#BAB0A0" opacity="1.000000" stroke="none" 
	d="
M148.338699,243.208344 
	C146.349472,237.414108 144.502304,231.919952 140.818970,226.862976 
	C144.247467,223.973892 148.307114,221.744400 151.774414,218.611008 
	C154.695908,215.970825 158.815277,217.264511 162.604218,216.009766 
	C162.358963,218.948059 164.512939,220.873642 165.589417,223.193146 
	C167.310303,226.901169 168.999802,230.623779 170.845718,234.665710 
	C164.419479,240.105911 157.170563,243.422760 148.338699,243.208344 
z"/>
<path fill="#EEECE8" opacity="1.000000" stroke="none" 
	d="
M267.368530,255.157623 
	C265.699219,250.249786 264.399475,245.509857 263.057434,240.390976 
	C269.126678,235.697556 275.837555,233.012756 283.674072,232.771149 
	C286.849945,241.208694 290.340607,249.228439 291.018494,258.453552 
	C283.256104,257.688202 275.497101,256.506866 267.368530,255.157623 
z"/>
<path fill="#B6AB9A" opacity="1.000000" stroke="none" 
	d="
M109.339539,267.204987 
	C107.276833,263.269348 106.460571,259.067749 102.960266,255.926163 
	C108.714348,251.101242 113.879021,245.570267 118.518646,239.116272 
	C120.819214,238.900955 121.652283,240.282761 122.419785,241.825500 
	C124.838097,246.686539 128.090851,251.114792 129.959366,256.641693 
	C130.229843,257.676178 130.197159,258.443604 129.654312,258.819458 
	C123.573868,263.029327 117.132683,266.430481 109.339539,267.204987 
z"/>
<path fill="#FADA51" opacity="1.000000" stroke="none" 
	d="
M370.985352,242.768250 
	C370.876923,261.504486 364.902435,278.153412 354.847870,293.894287 
	C349.215546,289.579132 349.260132,289.606293 353.031281,283.415741 
	C360.602020,270.987854 363.342712,257.332245 363.227112,242.495560 
	C365.437408,240.173508 367.757385,240.390335 370.498993,241.765533 
	C370.849335,242.061508 370.936127,242.533432 370.985352,242.768250 
z"/>
<path fill="#F2F0ED" opacity="1.000000" stroke="none" 
	d="
M214.548126,256.382629 
	C213.357880,248.923569 209.618149,242.250549 208.989746,234.416763 
	C214.409637,228.862442 220.963043,226.667999 228.656586,226.789734 
	C230.094971,229.513336 231.113403,232.040817 231.110748,235.287567 
	C223.508118,239.569000 218.331955,245.199905 218.015717,254.187531 
	C217.933960,256.510590 216.389023,256.252197 214.548126,256.382629 
z"/>
<path fill="#FAD951" opacity="1.000000" stroke="none" 
	d="
M388.171997,341.389282 
	C379.151001,339.775909 377.063171,335.991028 379.911804,327.433899 
	C382.788605,318.792145 387.788666,311.378113 393.425049,303.964722 
	C396.757446,303.327667 397.962128,306.085938 400.213226,307.755280 
	C400.619934,308.577942 400.683228,309.094208 400.522034,310.006042 
	C396.227905,316.329132 392.622711,322.538239 390.308044,329.513123 
	C389.036194,333.345520 390.111511,337.434265 388.171997,341.389282 
z"/>
<path fill="#F8CA0C" opacity="1.000000" stroke="none" 
	d="
M388.139404,341.854614 
	C387.132294,329.524261 391.850647,319.391846 399.596863,310.084900 
	C403.117767,309.735260 404.415131,311.870300 405.229309,314.838867 
	C401.119598,323.496185 398.085876,332.100159 396.977661,341.265686 
	C396.588959,344.480194 395.095001,344.699432 392.607147,343.655518 
	C391.226654,343.076263 389.806519,342.591339 388.139404,341.854614 
z"/>
<path fill="#DEDEDA" opacity="1.000000" stroke="none" 
	d="
M378.784668,388.300354 
	C386.442108,385.466248 393.322937,381.814880 398.997589,376.379028 
	C404.726349,370.891296 404.525879,364.128632 399.071289,358.390320 
	C397.944153,357.204529 396.452942,356.293793 396.019012,354.213531 
	C401.799377,355.209625 406.220764,358.614655 409.635040,363.211395 
	C412.625366,367.237305 411.748535,372.083374 407.625397,376.159119 
	C403.056183,380.675751 397.365051,383.388672 391.480469,385.682892 
	C387.628754,387.184540 383.676331,388.427856 379.398865,389.819977 
	C378.663818,389.506958 378.520355,389.080292 378.784668,388.300354 
z"/>
<path fill="#E99F0D" opacity="1.000000" stroke="none" 
	d="
M85.949585,322.255737 
	C86.574829,321.707794 87.033966,321.460999 87.736588,321.114410 
	C90.566689,322.973755 91.871658,326.008820 94.233597,328.598602 
	C94.412987,329.145569 94.441231,329.377380 94.393318,329.951508 
	C91.751602,334.355408 87.026085,336.731659 85.229187,341.824371 
	C78.442810,334.106476 70.311134,329.819733 59.789005,329.345306 
	C53.854977,329.077759 49.231316,324.959320 45.002762,320.419861 
	C46.270596,319.875549 47.531109,320.080627 48.564133,321.130585 
	C53.545246,326.193329 59.889381,327.680817 66.668472,328.032684 
	C67.163788,328.058380 67.756599,327.995087 68.134109,328.237671 
	C76.338150,333.510162 81.153984,328.334747 85.949585,322.255737 
z"/>
<path fill="#F8CA0C" opacity="1.000000" stroke="none" 
	d="
M84.971298,342.031372 
	C84.710785,335.929382 90.393135,334.069885 93.702026,330.148254 
	C97.303650,330.491913 98.267647,333.701233 100.648102,335.777130 
	C102.097763,339.878113 101.183556,342.315491 96.795204,343.079315 
	C94.563591,343.467743 92.458313,344.582031 89.923981,345.384216 
	C89.251999,345.380005 88.951958,345.359802 88.200836,345.341766 
	C87.749763,345.343933 87.679054,345.322083 87.642105,345.320129 
	C87.382256,343.973114 86.201653,343.353943 85.185104,342.231049 
	C84.951622,342.028656 84.979164,342.014404 84.971298,342.031372 
z"/>
<path fill="#DF990C" opacity="1.000000" stroke="none" 
	d="
M23.396244,261.670227 
	C25.100643,263.647675 27.425562,264.156952 29.546066,265.013153 
	C42.528637,270.255066 53.906162,278.046204 64.502113,287.068481 
	C65.538422,287.950867 66.376503,288.997101 65.389946,290.738770 
	C53.699467,279.621735 39.995270,271.844940 25.253000,265.661835 
	C23.889040,265.089783 19.931078,265.257355 23.396244,261.670227 
z"/>
<path fill="#EB9E0D" opacity="1.000000" stroke="none" 
	d="
M405.400452,315.015137 
	C404.018890,313.150909 402.237213,311.708649 400.196411,310.067078 
	C399.904663,309.495117 399.921570,309.076660 399.938293,308.343170 
	C401.128143,304.603241 403.098602,301.778137 406.572632,299.926514 
	C408.468719,302.026947 409.948608,304.124298 412.844727,305.137451 
	C410.688965,308.426331 408.181396,311.620148 405.400452,315.015137 
z"/>
<path fill="#EFAD3F" opacity="1.000000" stroke="none" 
	d="
M406.929443,299.771851 
	C404.796844,302.583221 402.676636,305.157288 400.247253,307.879761 
	C397.266266,307.855286 396.364288,305.169159 394.013367,303.923187 
	C395.905365,300.581543 398.119690,297.399628 400.619019,294.036255 
	C402.326111,295.939362 403.872742,297.892822 406.601318,299.006042 
	C406.934174,299.059204 406.941833,299.534485 406.929443,299.771851 
z"/>
<path fill="#A5A8A0" opacity="1.000000" stroke="none" 
	d="
M233.604645,242.876221 
	C234.128250,244.645050 232.677444,245.459351 231.912643,246.678040 
	C229.589096,250.380554 227.724945,254.318512 229.890656,258.682770 
	C231.710251,262.349518 229.163406,261.939301 226.695099,262.143280 
	C224.267563,255.293839 223.884384,248.809265 230.571762,244.019302 
	C231.347443,243.463684 232.345352,243.218307 233.604645,242.876221 
z"/>
<path fill="#F2BD52" opacity="1.000000" stroke="none" 
	d="
M370.857056,241.674591 
	C368.609467,242.049301 366.369568,242.037079 363.709534,242.030762 
	C362.751068,238.572861 363.222015,234.902817 361.082977,231.378204 
	C362.713348,231.004089 364.447052,230.996735 366.616089,230.978333 
	C369.753937,233.878525 369.639526,237.830612 370.857056,241.674591 
z"/>
<path fill="#CC8A0A" opacity="1.000000" stroke="none" 
	d="
M94.346115,329.126831 
	C91.124252,327.313202 89.521675,324.565186 88.017136,321.360962 
	C88.591286,320.164581 89.202484,319.314484 89.952927,318.180115 
	C92.305725,320.442291 94.519272,322.988739 96.835052,325.859253 
	C97.287956,328.011505 96.217201,328.790802 94.346115,329.126831 
z"/>
<path fill="#E99F0D" opacity="1.000000" stroke="none" 
	d="
M26.750008,305.753693 
	C33.578945,309.591187 40.372726,313.008087 44.914429,319.769409 
	C38.582024,315.767517 32.264736,311.407013 25.741203,306.788086 
	C25.533548,306.339752 25.532139,306.149811 25.756596,305.788940 
	C26.169443,305.599304 26.356424,305.580627 26.750008,305.753693 
z"/>
<path fill="#E99F0D" opacity="1.000000" stroke="none" 
	d="
M25.676468,306.371948 
	C19.614790,303.000458 12.809220,300.958282 7.981267,295.332520 
	C11.981791,294.824432 14.524734,297.527313 17.862547,299.380371 
	C20.676579,300.734039 22.727066,302.739532 25.686615,303.816895 
	C25.954418,304.037567 25.995085,303.999420 25.979431,304.021667 
	C26.302380,304.389771 26.470337,304.801178 26.271374,305.593384 
	C26.100849,305.898651 25.817980,306.214233 25.676468,306.371948 
z"/>
<path fill="#D5AB09" opacity="1.000000" stroke="none" 
	d="
M94.003555,329.267792 
	C94.895920,328.251343 95.787422,327.480774 96.808105,326.446716 
	C99.641441,328.591400 101.785515,331.254517 100.962044,335.631104 
	C97.689636,335.351440 96.324066,332.633881 94.271049,330.195648 
	C94.002731,330.005341 94.002693,329.513641 94.003555,329.267792 
z"/>
<path fill="#F8F7F5" opacity="1.000000" stroke="none" 
	d="
M244.977051,244.388733 
	C245.177872,244.799423 245.169067,244.965378 245.136383,245.126495 
	C244.684967,247.351791 249.258575,249.948715 245.813385,251.197250 
	C243.514999,252.030182 242.502655,247.785461 241.359802,245.496979 
	C241.083908,244.944550 241.167694,244.212524 241.077209,243.173157 
	C242.510376,242.658676 243.614609,243.451111 244.977051,244.388733 
z"/>
<path fill="#C3CDCF" opacity="1.000000" stroke="none" 
	d="
M281.002106,266.664154 
	C279.940247,266.968872 278.878204,266.943848 277.080353,266.969574 
	C275.149200,267.042480 274.107391,266.652191 273.005859,265.584167 
	C272.735748,265.090637 272.676361,264.869080 272.802734,264.357880 
	C275.527466,263.162933 277.838654,264.171478 280.589935,264.969849 
	C281.000397,265.455109 281.001160,265.894745 281.002106,266.664154 
z"/>
<path fill="#C6BEB1" opacity="1.000000" stroke="none" 
	d="
M378.637421,388.044373 
	C379.013275,388.424377 379.024414,388.832367 379.032166,389.546722 
	C376.941345,390.524872 374.853912,391.196716 372.396606,391.863403 
	C372.902954,388.607025 376.154022,389.273895 378.637421,388.044373 
z"/>
<path fill="#DAE1E3" opacity="1.000000" stroke="none" 
	d="
M272.619934,263.974609 
	C272.988495,264.068237 273.012573,264.513611 273.016388,264.736633 
	C273.017029,265.672241 272.867126,266.342682 272.183289,267.161713 
	C271.460693,267.521088 271.003662,267.538513 270.255920,267.222839 
	C269.968567,267.025024 269.996216,266.996613 269.994263,267.016235 
	C269.587830,266.555084 268.995941,266.493103 268.202911,266.179871 
	C267.962158,266.017212 268.006897,266.007904 267.993591,266.026520 
	C267.400177,265.333679 267.237671,264.542877 267.762085,263.312012 
	C269.653076,262.165131 270.682281,264.267761 272.619934,263.974609 
z"/>
<path fill="#E99F0D" opacity="1.000000" stroke="none" 
	d="
M7.523937,286.203430 
	C7.847646,286.099213 7.904446,286.287384 8.015292,286.765320 
	C8.571274,289.387787 9.358541,291.694366 8.446434,294.496735 
	C8.177769,294.861938 7.946609,295.049561 7.830883,295.144531 
	C6.551769,292.377869 7.051332,289.429138 7.523937,286.203430 
z"/>
<path fill="#F8F9FA" opacity="1.000000" stroke="none" 
	d="
M267.620300,262.812073 
	C267.993530,263.729645 267.991150,264.501251 267.984558,265.658997 
	C267.106415,265.887329 266.232513,265.729492 265.132080,265.322021 
	C264.569580,264.551483 264.437439,263.983185 264.681458,262.953247 
	C265.650909,262.581360 266.447815,262.623749 267.620300,262.812073 
z"/>
<path fill="#DAE1E3" opacity="1.000000" stroke="none" 
	d="
M264.437744,262.380371 
	C264.892517,263.101410 264.931030,263.663879 264.937561,264.649353 
	C263.002136,265.091339 261.350677,264.484802 259.811005,262.738342 
	C261.054596,261.581360 262.546326,262.139526 264.437744,262.380371 
z"/>
<path fill="#E99F0D" opacity="1.000000" stroke="none" 
	d="
M85.004791,342.344757 
	C86.640617,342.067596 87.728325,342.778503 87.714378,344.958374 
	C86.313210,344.856934 85.696220,343.748718 85.004791,342.344757 
z"/>
<path fill="#F9C60C" opacity="1.000000" stroke="none" 
	d="
M367.310669,295.899902 
	C367.060547,294.861359 366.772614,293.542450 368.747681,293.099976 
	C368.603333,293.977692 368.101227,294.875397 367.310669,295.899902 
z"/>
<path fill="#DEDEDA" opacity="1.000000" stroke="none" 
	d="
M395.893433,353.603546 
	C395.403900,353.777039 394.717194,353.587097 393.752289,353.159119 
	C394.317657,352.311157 395.011444,352.744293 395.893433,353.603546 
z"/>
<path fill="#7F7761" opacity="1.000000" stroke="none" 
	d="
M395.330139,395.558716 
	C395.240204,395.456116 395.550995,395.399445 395.550995,395.399445 
	C395.550995,395.399445 395.420105,395.661316 395.330139,395.558716 
z"/>
<path fill="#E99F0D" opacity="1.000000" stroke="none" 
	d="
M87.902397,345.581512 
	C88.050934,345.302094 88.352097,345.260223 89.102646,345.309265 
	C89.053032,345.539856 88.554031,345.679474 87.902397,345.581512 
z"/>
<path fill="#E99F0D" opacity="1.000000" stroke="none" 
	d="
M9.185810,285.551361 
	C9.099958,285.784668 8.850132,285.817261 8.222896,285.820251 
	C8.074828,285.208862 8.458049,285.038422 9.185810,285.551361 
z"/>
<path fill="#EB9E0D" opacity="1.000000" stroke="none" 
	d="
M413.429443,305.153442 
	C413.352112,304.914429 413.526855,304.605042 413.983002,304.273743 
	C414.070099,304.528961 413.875824,304.806000 413.429443,305.153442 
z"/>
<path fill="#EB9E0D" opacity="1.000000" stroke="none" 
	d="
M414.506683,304.195435 
	C414.447510,303.942291 414.668274,303.609222 415.208313,303.255432 
	C415.280579,303.528259 415.033600,303.821869 414.506683,304.195435 
z"/>
<path fill="#F8F9FA" opacity="1.000000" stroke="none" 
	d="
M270.083618,267.335724 
	C270.428223,267.012665 270.887878,267.000305 271.692352,266.997620 
	C272.200806,266.866455 272.364410,266.725616 272.847656,266.644318 
	C273.737091,267.080811 274.087280,267.606293 274.127563,268.582703 
	C274.020844,269.083099 274.015289,269.273834 274.001984,269.751099 
	C272.275452,269.960602 271.210419,268.845825 270.083618,267.335724 
z"/>
<path fill="#F8F9FA" opacity="1.000000" stroke="none" 
	d="
M268.107239,266.291077 
	C268.534912,266.181091 269.107666,266.345001 269.836365,266.772369 
	C269.412292,266.878876 268.832336,266.721893 268.107239,266.291077 
z"/>
<path fill="#D94619" opacity="1.000000" stroke="none" 
	d="
M151.110550,110.485741 
	C151.130203,114.102798 151.133316,117.267357 151.134109,120.431923 
	C151.135651,126.723083 154.153503,128.842499 160.222565,127.033195 
	C162.141724,126.461060 161.735291,125.125229 161.762070,123.891792 
	C161.866821,119.064339 161.625824,114.210915 162.040039,109.412613 
	C162.828293,100.281433 169.295563,94.983551 177.855591,95.992752 
	C179.392395,96.173935 180.797592,96.620651 182.018997,97.511681 
	C183.260376,98.417290 183.667175,99.808693 182.741516,101.011589 
	C181.385620,102.773537 180.547379,101.107300 179.639465,100.247208 
	C175.713531,96.528015 172.947556,97.281319 171.857407,102.552078 
	C170.324219,109.964775 171.338089,117.498131 171.089417,124.974159 
	C170.994232,127.836189 173.199417,126.808060 174.645020,127.024307 
	C175.572708,127.163078 176.812592,126.860352 176.822250,128.335068 
	C176.828964,129.360413 175.954178,129.800766 175.098846,129.664474 
	C170.505173,128.932480 171.011749,132.012039 171.063278,134.870316 
	C171.123322,138.200348 171.181610,141.536697 171.041260,144.861877 
	C170.946884,147.098175 171.420654,148.774094 174.364319,149.330292 
	C171.145645,151.773132 168.164307,152.568283 164.781967,151.245743 
	C161.303329,149.885574 161.854736,146.787766 161.796860,144.017212 
	C161.727310,140.687515 161.438248,137.311569 161.858276,134.034348 
	C162.499420,129.031998 159.325760,129.699158 156.298370,129.700302 
	C153.423325,129.701385 150.569199,129.186020 151.050262,133.815720 
	C151.443817,137.603165 151.260483,141.477539 151.040726,145.296539 
	C150.452744,155.513794 136.662613,163.098755 127.631561,158.286301 
	C126.530685,157.699646 125.510803,157.083893 125.712463,155.723190 
	C125.822701,154.979370 126.250595,154.018112 126.841125,153.661636 
	C128.363419,152.742737 128.666992,154.432266 129.425415,155.155075 
	C133.460953,159.001053 139.348068,157.229736 140.962265,151.447372 
	C142.782562,144.926849 141.577377,138.193130 141.816605,131.557617 
	C141.891296,129.486343 140.271805,129.784698 138.996674,129.732193 
	C137.960587,129.689529 136.817642,129.691956 136.720795,128.384293 
	C136.610977,126.901970 137.884933,126.932022 138.829300,127.055893 
	C141.845474,127.451469 141.945602,125.656464 141.881897,123.419273 
	C141.772888,119.591530 141.821930,115.758392 141.852097,111.927895 
	C141.871216,109.499672 140.686951,108.555244 138.390457,109.092575 
	C135.927628,109.668823 133.673035,110.706863 131.917999,112.614037 
	C130.663040,113.977776 130.267105,115.662590 131.156509,117.211533 
	C132.022232,118.719254 133.411362,118.035461 134.643524,117.367325 
	C136.083435,116.586533 137.299210,116.917526 137.831940,118.498337 
	C138.410522,120.215271 138.004654,121.784843 136.540588,122.980652 
	C134.799973,124.402359 132.786774,124.397034 130.866837,123.693924 
	C128.419067,122.797485 127.308784,120.710243 127.223663,118.214355 
	C127.141556,115.806503 127.954041,113.551453 129.660660,111.847610 
	C134.644958,106.871429 140.833313,105.569183 147.578598,106.483704 
	C149.450806,106.737534 151.066284,107.719765 151.110550,110.485741 
z"/>
<path fill="#4A2F06" opacity="1.000000" stroke="none" 
	d="
M220.123962,117.136292 
	C219.989059,117.189827 219.879547,117.286911 219.752441,117.346321 
	C219.719208,117.361847 219.631210,117.260231 219.568375,117.212418 
	C219.673996,117.145126 219.779617,117.077820 220.034821,117.116257 
	C220.184402,117.221992 220.142792,117.165764 220.123962,117.136292 
z"/>
<path fill="#4A2F06" opacity="1.000000" stroke="none" 
	d="
M154.991913,190.001282 
	C154.630524,189.828552 154.440765,189.484680 154.250992,189.140808 
	C154.519974,189.112915 154.788940,189.085022 155.274384,189.264893 
	C155.490845,189.472641 155.163528,189.830139 154.991913,190.001282 
z"/>
<path fill="#D94412" opacity="1.000000" stroke="none" 
	d="
M349.248413,156.228790 
	C348.664093,154.506134 348.432892,153.028122 347.987122,151.617935 
	C345.882507,144.960129 347.063385,143.446640 354.356750,144.184021 
	C361.930023,162.932617 365.592987,182.212311 365.215912,202.233459 
	C365.158875,205.262146 365.147095,208.050430 361.016388,208.096161 
	C356.977966,208.140869 357.193237,205.211731 357.067383,202.544769 
	C356.329224,186.903992 353.894104,171.544159 349.248413,156.228790 
z"/>
<path fill="#D94412" opacity="1.000000" stroke="none" 
	d="
M380.834503,174.361404 
	C382.018646,183.563202 382.253784,192.360840 382.115845,201.185532 
	C382.070618,204.079849 381.410645,206.042557 378.065979,206.203506 
	C374.487701,206.375717 374.094025,204.184097 373.991425,201.386017 
	C373.338074,183.561386 371.008667,166.003433 365.474030,148.964417 
	C364.622711,146.343536 363.963043,143.512589 367.475647,142.288605 
	C371.174500,140.999710 372.894958,143.042725 374.016754,146.389389 
	C377.032867,155.387436 379.191498,164.579376 380.834503,174.361404 
z"/>
<path fill="#D94512" opacity="1.000000" stroke="none" 
	d="
M342.616821,210.619461 
	C339.733246,204.612701 339.996338,198.193222 339.324158,192.004272 
	C337.988953,179.711288 335.080750,167.873367 330.942688,156.281799 
	C329.982819,153.593048 328.540649,150.545929 332.356049,149.124527 
	C336.025391,147.757538 338.255463,149.640747 339.356934,153.333267 
	C340.492859,157.141296 341.973969,160.846375 343.507751,164.894684 
	C346.690491,178.145157 349.347748,191.113098 349.196594,204.537292 
	C349.144135,209.195236 347.328827,210.924484 342.616821,210.619461 
z"/>
<path fill="#D94412" opacity="1.000000" stroke="none" 
	d="
M390.379211,145.685562 
	C396.138275,162.394363 398.175751,179.256790 397.928741,196.467209 
	C397.885559,199.474380 397.214691,201.722092 393.751068,202.086975 
	C391.056976,202.370804 389.944702,201.370193 389.741638,198.510452 
	C388.815308,185.464188 388.189362,172.366730 385.001862,159.595642 
	C384.039185,155.738525 383.062500,151.874481 381.834167,148.097549 
	C380.930542,145.319016 380.364807,142.612106 383.652527,141.377029 
	C387.118225,140.075104 389.418396,141.694077 390.379211,145.685562 
z"/>
<path fill="#FEEB9D" opacity="1.000000" stroke="none" 
	d="
M401.514893,153.992950 
	C408.114502,170.200012 410.443726,186.753860 406.967255,203.888245 
	C407.514465,187.638962 404.624878,171.829788 400.813782,155.735718 
	C400.491943,154.782166 400.600983,154.321121 401.514893,153.992950 
z"/>
<path fill="#FDE791" opacity="1.000000" stroke="none" 
	d="
M401.890289,153.672516 
	C401.627441,154.287384 401.337036,154.544479 400.914978,155.069977 
	C399.318390,152.724747 398.427094,149.933884 398.819855,146.593369 
	C399.834137,148.833817 400.848419,151.074265 401.890289,153.672516 
z"/>
<path fill="#F5B20C" opacity="1.000000" stroke="none" 
	d="
M472.692383,207.738525 
	C473.242645,212.789948 470.303741,216.406387 468.125305,220.236389 
	C465.900543,224.147842 463.894409,228.054291 462.896515,232.498123 
	C461.540283,238.537476 458.446350,242.614929 451.810791,244.370804 
	C441.739624,247.035782 435.380920,253.672287 433.849731,264.487671 
	C433.237030,268.815460 431.344635,272.548737 425.419128,272.003143 
	C422.513550,267.584656 423.539185,262.957184 424.573029,258.500824 
	C426.651520,249.541443 430.521362,241.279892 435.381226,233.076141 
	C435.610870,232.525543 435.692230,232.304962 435.919312,231.774384 
	C436.176361,231.273636 436.287689,231.082886 436.789642,230.397568 
	C437.319031,229.758438 437.457733,229.613907 437.995483,229.051804 
	C438.631897,228.342087 438.851746,228.037323 439.187592,227.468765 
	C439.417511,227.051315 439.513641,226.884842 439.771362,226.476547 
	C440.162384,225.910706 440.389038,225.584778 440.775635,224.993103 
	C442.149506,222.665268 443.886841,221.053635 445.761292,219.136414 
	C446.268585,218.583191 446.553223,218.261841 447.034393,217.679657 
	C447.521790,217.085632 447.832825,216.772797 448.432678,216.271606 
	C448.891998,215.936707 449.083405,215.810699 449.578491,215.512482 
	C450.094818,215.236847 450.307465,215.133453 450.850433,214.891357 
	C456.199280,212.198105 461.080933,209.337875 466.617859,207.953217 
	C468.526001,207.476028 470.381683,206.496582 472.692383,207.738525 
z"/>
<path fill="#FEEDA6" opacity="1.000000" stroke="none" 
	d="
M465.363770,263.310852 
	C477.289856,248.506958 482.070007,231.498886 483.322388,213.080154 
	C491.304962,232.944885 469.147614,276.988068 450.968872,276.599823 
	C456.377350,272.603058 460.865326,268.209198 465.363770,263.310852 
z"/>
<path fill="#D59D0C" opacity="1.000000" stroke="none" 
	d="
M436.687805,230.903549 
	C435.993286,237.356903 431.448273,242.082535 429.293304,247.983078 
	C426.537750,255.528076 424.331726,262.983765 425.006287,271.540771 
	C425.079498,274.673737 427.166931,276.304871 428.437225,278.435364 
	C422.915771,277.755554 420.923920,273.541809 420.953644,262.443268 
	C421.846832,258.891693 422.759644,255.792160 423.826294,252.360504 
	C424.469299,251.594925 424.505432,250.978714 424.776184,250.134338 
	C424.915741,249.867844 424.954742,249.459167 424.987183,249.256485 
	C425.445496,248.606812 425.505280,248.014984 425.821716,247.220535 
	C425.992218,246.983841 426.001221,247.001221 425.991608,246.999496 
	C427.664978,243.925430 429.222168,240.791687 430.782776,237.272385 
	C430.978210,236.980560 430.998474,236.999390 430.986450,236.989166 
	C433.175171,235.269943 433.331879,231.783813 436.687805,230.903549 
z"/>
<path fill="#F4BD45" opacity="1.000000" stroke="none" 
	d="
M472.998230,207.726044 
	C466.790527,208.644608 461.070404,210.760757 455.711884,213.860367 
	C454.127899,214.776596 452.695465,215.936066 450.397278,216.041138 
	C449.356262,213.797791 451.204346,212.799713 452.339569,211.512253 
	C456.543304,206.744812 461.693573,203.252701 467.677490,200.322540 
	C471.358429,200.710861 473.026184,202.787399 473.023682,206.631180 
	C473.032898,207.015640 473.009460,207.489227 472.998230,207.726044 
z"/>
<path fill="#C1B8AA" opacity="1.000000" stroke="none" 
	d="
M148.150955,243.329407 
	C156.080688,242.188156 163.066971,238.329529 170.628845,235.034286 
	C171.568665,236.185745 172.234177,237.346909 172.714737,238.580139 
	C176.682571,248.762421 176.355865,249.787476 166.376038,253.795990 
	C151.775482,259.660461 153.891724,260.353394 149.128311,246.002426 
	C148.868195,245.218719 148.572998,244.446671 148.150955,243.329407 
z"/>
<path fill="#BCB3A3" opacity="1.000000" stroke="none" 
	d="
M109.154449,267.325226 
	C116.344566,264.830048 123.291389,261.832733 129.840881,257.308289 
	C132.703949,261.795227 134.832550,266.816345 135.995728,272.610809 
	C130.497665,277.503845 123.892113,279.931976 117.500771,282.753632 
	C116.584961,283.157990 115.565277,282.851654 114.327957,282.208313 
	C113.504700,276.864685 110.636780,272.515167 109.154449,267.325226 
z"/>
<path fill="#F8F7F5" opacity="1.000000" stroke="none" 
	d="
M228.852539,226.683289 
	C221.981964,227.632980 215.918579,230.984451 209.313980,233.858765 
	C205.617447,230.924927 204.676483,226.786377 203.950775,222.115402 
	C206.692200,218.736603 210.814163,217.532303 213.661301,214.155548 
	C214.556213,214.218307 215.298370,214.810196 215.770081,214.642288 
	C222.298828,212.318466 224.713470,216.115082 226.327316,221.447128 
	C226.847961,223.167267 227.903412,224.725525 228.852539,226.683289 
z"/>
<path fill="#C1B8AA" opacity="1.000000" stroke="none" 
	d="
M114.150558,282.331055 
	C118.997353,282.273621 122.560318,278.820831 126.770020,277.071503 
	C129.661819,275.869812 132.448425,274.415009 135.643097,273.037109 
	C137.665054,275.502075 138.364609,278.351776 138.993530,281.614746 
	C134.377121,287.850861 127.428093,289.730103 120.989883,292.426605 
	C118.980644,293.268127 117.582550,292.112427 116.899452,290.086304 
	C116.062370,287.603485 115.165642,285.140808 114.150558,282.331055 
z"/>
<path fill="#C6BEB0" opacity="1.000000" stroke="none" 
	d="
M174.656616,259.015686 
	C174.899887,259.874420 174.735474,260.726257 174.330444,261.799377 
	C169.270905,261.930603 165.319046,264.688904 160.948441,266.066772 
	C159.525696,266.515259 158.198441,267.383759 156.695526,266.660797 
	C156.173477,266.409668 155.734909,265.793671 155.496552,265.241425 
	C155.405533,265.030579 155.963455,264.226562 156.256729,264.208923 
	C162.650299,263.823730 167.879547,259.431915 174.656616,259.015686 
z"/>
<path fill="#F7F6F4" opacity="1.000000" stroke="none" 
	d="
M283.954407,232.641022 
	C276.843597,234.148056 270.483063,237.584061 263.381897,239.968872 
	C261.282318,235.537582 259.672546,231.010056 257.773621,226.607254 
	C256.494720,223.641983 257.566986,221.871231 260.075989,220.495316 
	C260.364349,220.337173 260.687317,220.240158 260.997986,220.124954 
	C277.695068,213.932571 275.293427,211.586395 283.954407,232.641022 
z"/>
<path fill="#FDE791" opacity="1.000000" stroke="none" 
	d="
M8.439776,295.085388 
	C8.120347,292.548889 8.062924,290.235870 8.037420,287.488983 
	C9.324640,292.855621 13.664360,295.952209 18.626602,298.927643 
	C19.142649,299.564362 19.035105,299.958344 18.307842,300.182434 
	C14.882357,298.488953 11.792070,296.898895 8.439776,295.085388 
z"/>
<path fill="#F4BD45" opacity="1.000000" stroke="none" 
	d="
M18.170147,300.351562 
	C18.264601,299.947693 18.514814,299.760529 18.822430,299.305603 
	C21.454268,300.098450 23.645353,301.633362 25.808620,303.737610 
	C22.820652,304.244049 20.782864,302.014618 18.170147,300.351562 
z"/>
<path fill="#F4BD45" opacity="1.000000" stroke="none" 
	d="
M26.314350,305.918335 
	C26.062119,305.487244 26.023388,305.075867 25.974216,304.354187 
	C26.286366,304.486237 26.608955,304.928589 26.944078,305.658173 
	C26.956610,305.945435 26.527855,305.938049 26.314350,305.918335 
z"/>
<path fill="#DAE1E3" opacity="1.000000" stroke="none" 
	d="
M293.982849,276.310120 
	C294.049164,276.852173 294.028595,277.089142 293.986206,277.682617 
	C288.737488,275.201416 283.510620,272.363739 278.041504,269.257416 
	C284.058838,269.276581 288.865723,272.897034 293.982849,276.310120 
z"/>
<path fill="#DAE1E3" opacity="1.000000" stroke="none" 
	d="
M274.408264,268.918274 
	C273.731812,268.420074 273.437195,267.947815 273.015564,267.225281 
	C273.928223,266.117493 275.131226,266.621124 276.653107,266.779236 
	C277.038605,266.989075 277.003387,266.988708 277.011658,266.970581 
	C277.030518,267.412170 277.041107,267.871857 277.074036,268.676025 
	C276.327637,268.995056 275.558868,268.969604 274.408264,268.918274 
z"/>
<path fill="#D6A53A" opacity="1.000000" stroke="none" 
	d="
M467.571228,200.107086 
	C468.006958,201.538452 466.919250,202.043762 465.867706,202.553131 
	C459.626373,205.576447 454.821594,210.336273 450.152893,215.728729 
	C450.022858,216.037552 450.007019,216.008133 450.017883,216.012283 
	C449.761017,216.213501 449.513153,216.433044 449.119324,216.860229 
	C448.674500,217.163177 448.443390,217.342560 448.151062,217.776337 
	C447.772339,218.165726 447.540863,218.400101 447.186462,218.860657 
	C445.201385,221.236343 443.377472,223.423660 441.297089,225.811310 
	C440.803741,226.225281 440.567657,226.439743 440.178040,226.837769 
	C440.023743,227.020523 440.002441,227.000610 440.015076,227.011139 
	C439.549530,227.418320 439.493683,228.005341 439.161682,228.773071 
	C438.983643,228.998001 439.001068,229.001984 438.998779,228.993591 
	C438.773621,229.211212 438.550049,229.436493 438.161682,229.833527 
	C437.997620,230.005981 438.000000,230.000092 438.002991,229.998718 
	C437.778564,230.216568 437.549164,230.433716 437.166870,230.831299 
	C437.015961,231.013870 437.002808,231.003250 437.011597,231.010178 
	C434.416077,232.243088 434.260956,235.695236 431.314789,236.949371 
	C439.482605,221.187897 448.910797,206.301651 467.571228,200.107086 
z"/>
<path fill="#D6A53A" opacity="1.000000" stroke="none" 
	d="
M430.667450,237.129181 
	C430.766266,240.780472 428.782867,243.783661 426.294434,246.848999 
	C426.320312,243.253738 428.216278,240.210754 430.667450,237.129181 
z"/>
<path fill="#D6A53A" opacity="1.000000" stroke="none" 
	d="
M424.681091,250.068771 
	C424.774750,250.465668 424.633728,251.063492 424.236389,251.844849 
	C424.135529,251.442154 424.290955,250.855927 424.681091,250.068771 
z"/>
<path fill="#D6A53A" opacity="1.000000" stroke="none" 
	d="
M425.737976,247.152649 
	C425.831451,247.554001 425.670654,248.124161 425.264709,248.874054 
	C425.174286,248.476349 425.328979,247.898895 425.737976,247.152649 
z"/>
<path fill="#FCFDFD" opacity="1.000000" stroke="none" 
	d="
M276.857544,266.715515 
	C275.934021,266.983124 274.829407,266.977203 273.306702,266.973145 
	C272.888580,266.975037 272.462433,266.991516 272.249817,266.999420 
	C272.203125,266.444275 272.369110,265.881195 272.777649,265.138885 
	C274.238953,265.453735 275.457733,265.947876 276.857544,266.715515 
z"/>
<path fill="#D59D0C" opacity="1.000000" stroke="none" 
	d="
M439.236359,228.840164 
	C439.162476,228.444092 439.341309,227.890198 439.773926,227.178986 
	C439.848175,227.575226 439.668640,228.128784 439.236359,228.840164 
z"/>
<path fill="#D59D0C" opacity="1.000000" stroke="none" 
	d="
M438.223938,229.902374 
	C438.080658,229.668427 438.262512,229.397110 438.769836,229.088608 
	C438.911865,229.321808 438.729828,229.593018 438.223938,229.902374 
z"/>
<path fill="#F4BD45" opacity="1.000000" stroke="none" 
	d="
M449.195557,216.947311 
	C449.155304,216.772308 449.357178,216.499222 449.793945,216.121292 
	C449.831757,216.294037 449.634735,216.571640 449.195557,216.947311 
z"/>
<path fill="#F4BD45" opacity="1.000000" stroke="none" 
	d="
M447.252441,218.929596 
	C447.212891,218.769653 447.400452,218.490265 447.815063,218.090012 
	C447.854584,218.249481 447.667053,218.529816 447.252441,218.929596 
z"/>
<path fill="#D59D0C" opacity="1.000000" stroke="none" 
	d="
M440.245117,226.911377 
	C440.112335,226.683884 440.299255,226.415771 440.812531,226.113922 
	C440.928436,226.332718 440.737091,226.596237 440.245117,226.911377 
z"/>
<path fill="#D59D0C" opacity="1.000000" stroke="none" 
	d="
M437.240295,230.910034 
	C437.093964,230.675949 437.273163,230.404938 437.779724,230.099091 
	C437.921753,230.331390 437.741302,230.601013 437.240295,230.910034 
z"/>
</svg>